#N canvas 68 130 503 469 10;
#X obj 37 185 pix_data;
#X text 111 210 gray-value;
#X text 118 160 x-pos;
#X text 165 162 y-pos;
#X obj 53 107 r Dimg;
#X obj 296 193 gemhead 55;
#X obj 298 254 translateXYZ 0 0 1;
#X obj 333 358 color 0 0 1;
#X obj 335 395 square 0.1;
#X obj 117 93 / 8;
#X obj 117 118 + 0.5;
#X floatatom 119 144 5 0 0 0 - - -, f 5;
#X obj 159 117 + 0.5;
#X floatatom 161 143 5 0 0 0 - - -, f 5;
#X obj 159 92 / 6;
#X obj 33 84 r BB;
#X obj 87 209 > 0;
#X obj 92 262 sel 1 0;
#X msg 274 313 1 0 0;
#X obj 93 295 t b b;
#X msg 358 315 0 0 1;
#X obj 170 286 t b b;
#X obj 180 359 s stop-play-\$1;
#X obj 221 21 \$2;
#X obj 281 25 \$3;
#X obj 233 -3 loadbang;
#X obj 96 56 r x-\$0;
#X obj 159 58 r y-\$0;
#X obj 313 221 r x-\$0;
#X obj 376 223 r y-\$0;
#X floatatom 45 231 5 0 0 0 - - -, f 5;
#X obj 218 53 s x-\$0;
#X obj 281 55 s y-\$0;
#X obj 101 426 s sends;
#X msg 106 396 send play-\$1 bang;
#X obj 101 351 \$1;
#X obj 94 240 change;
#X connect 0 2 16 0;
#X connect 0 2 30 0;
#X connect 4 0 0 1;
#X connect 5 0 6 0;
#X connect 6 0 7 0;
#X connect 7 0 8 0;
#X connect 9 0 10 0;
#X connect 10 0 11 0;
#X connect 11 0 0 2;
#X connect 12 0 13 0;
#X connect 13 0 0 3;
#X connect 14 0 12 0;
#X connect 15 0 0 0;
#X connect 16 0 36 0;
#X connect 17 0 19 0;
#X connect 17 1 21 0;
#X connect 18 0 7 1;
#X connect 19 0 35 0;
#X connect 19 1 18 0;
#X connect 20 0 7 1;
#X connect 21 0 22 0;
#X connect 21 1 20 0;
#X connect 23 0 31 0;
#X connect 24 0 32 0;
#X connect 25 0 23 0;
#X connect 25 0 24 0;
#X connect 26 0 9 0;
#X connect 27 0 14 0;
#X connect 28 0 6 1;
#X connect 29 0 6 2;
#X connect 34 0 33 0;
#X connect 35 0 34 0;
#X connect 36 0 17 0;
